<svg width="1059" height="159" viewBox="0 0 1059 159" fill="none" xmlns="http://www.w3.org/2000/svg">
<path d="M54.6173 7.18181H79.2394V89.3324C79.2394 96.9261 77.5328 103.523 74.1194 109.122C70.7444 114.722 66.0462 119.036 60.0249 122.066C54.0036 125.096 47.0043 126.611 39.0271 126.611C31.9319 126.611 25.4887 125.364 19.6975 122.871C13.9447 120.34 9.38077 116.505 6.00577 111.366C2.63077 106.188 0.962441 99.6875 1.00079 91.8636H25.7955C25.8722 94.9702 26.5051 97.6357 27.694 99.8601C28.9212 102.046 30.5896 103.734 32.6989 104.923C34.8467 106.073 37.3779 106.648 40.2927 106.648C43.3609 106.648 45.9497 105.996 48.059 104.692C50.2068 103.35 51.8367 101.394 52.9489 98.8246C54.0612 96.255 54.6173 93.0909 54.6173 89.3324V7.18181ZM95.3244 125V36.6364H119.831V125H95.3244ZM107.635 25.2457C103.992 25.2457 100.866 24.0376 98.2583 21.6214C95.6887 19.1669 94.4039 16.233 94.4039 12.8196C94.4039 9.4446 95.6887 6.549 98.2583 4.13281C100.866 1.67826 103.992 0.450988 107.635 0.450988C111.279 0.450988 114.385 1.67826 116.955 4.13281C119.563 6.549 120.867 9.4446 120.867 12.8196C120.867 16.233 119.563 19.1669 116.955 21.6214C114.385 24.0376 111.279 25.2457 107.635 25.2457ZM135.413 125V36.6364H159.172V52.054H160.093C161.704 46.5696 164.407 42.4276 168.204 39.6278C172.001 36.7898 176.373 35.3707 181.321 35.3707C182.548 35.3707 183.871 35.4474 185.29 35.6008C186.709 35.7543 187.956 35.9652 189.03 36.2337V57.9794C187.879 57.6342 186.287 57.3274 184.255 57.0589C182.222 56.7905 180.362 56.6562 178.674 56.6562C175.069 56.6562 171.848 57.4425 169.01 59.0149C166.21 60.549 163.985 62.6967 162.336 65.4581C160.726 68.2195 159.92 71.4027 159.92 75.0078V125H135.413ZM197.19 125V110.388L240.451 56.8288V56.196H198.686V36.6364H269.963V52.5717L229.348 104.808V105.44H271.459V125H197.19ZM301.279 158.136C298.172 158.136 295.258 157.887 292.535 157.388C289.85 156.928 287.626 156.334 285.861 155.605L291.384 137.311C294.26 138.193 296.849 138.673 299.15 138.749C301.49 138.826 303.503 138.289 305.191 137.138C306.917 135.988 308.317 134.032 309.39 131.271L310.829 127.531L279.131 36.6364H304.903L323.197 101.528H324.118L342.584 36.6364H368.53L334.185 134.55C332.536 139.305 330.292 143.447 327.454 146.976C324.655 150.543 321.107 153.285 316.812 155.202C312.516 157.158 307.339 158.136 301.279 158.136ZM410.925 125V7.18181H435.835V59.13H437.388L479.787 7.18181H509.644L465.922 59.9354L510.162 125H480.362L448.089 76.5611L435.835 91.5185V125H410.925ZM551.89 126.726C542.8 126.726 534.977 124.885 528.418 121.203C521.898 117.483 516.874 112.229 513.346 105.44C509.818 98.6136 508.053 90.5405 508.053 81.2209C508.053 72.1314 509.818 64.1541 513.346 57.2891C516.874 50.424 521.841 45.0739 528.246 41.2386C534.689 37.4034 542.244 35.4858 550.912 35.4858C556.742 35.4858 562.168 36.4254 567.193 38.3047C572.255 40.1456 576.666 42.9261 580.424 46.6463C584.221 50.3665 587.174 55.0455 589.283 60.6832C591.393 66.2827 592.447 72.8409 592.447 80.358V87.0888H517.833V71.9013H569.379C569.379 68.3729 568.612 65.2472 567.077 62.5241C565.543 59.8011 563.415 57.6726 560.692 56.1385C558.007 54.5661 554.881 53.7798 551.315 53.7798C547.595 53.7798 544.296 54.6428 541.42 56.3686C538.582 58.0561 536.357 60.3381 534.746 63.2145C533.136 66.0526 532.311 69.2166 532.273 72.7067V87.1463C532.273 91.5185 533.078 95.2962 534.689 98.4794C536.338 101.663 538.658 104.117 541.65 105.843C544.641 107.569 548.189 108.432 552.293 108.432C555.016 108.432 557.509 108.048 559.771 107.281C562.034 106.514 563.971 105.364 565.582 103.83C567.193 102.295 568.42 100.416 569.264 98.1918L591.93 99.6875C590.779 105.134 588.42 109.889 584.854 113.955C581.325 117.982 576.761 121.126 571.162 123.389C565.601 125.614 559.177 126.726 551.89 126.726ZM604.39 125V36.6364H628.15V52.054H629.07C630.681 46.5696 633.385 42.4276 637.182 39.6278C640.978 36.7898 645.351 35.3707 650.298 35.3707C651.525 35.3707 652.848 35.4474 654.267 35.6008C655.687 35.7543 656.933 35.9652 658.007 36.2337V57.9794C656.856 57.6342 655.265 57.3274 653.232 57.0589C651.199 56.7905 649.339 56.6562 647.652 56.6562C644.047 56.6562 640.825 57.4425 637.987 59.0149C635.187 60.549 632.963 62.6967 631.314 65.4581C629.703 68.2195 628.897 71.4027 628.897 75.0078V125H604.39ZM688.833 99.5724L688.891 70.1754H692.458L720.762 36.6364H748.893L710.867 81.0483H705.056L688.833 99.5724ZM666.627 125V7.18181H691.135V125H666.627ZM721.855 125L695.852 86.5135L712.19 69.1974L750.561 125H721.855ZM781.374 7.18181V125H756.867V7.18181H781.374ZM822.153 126.668C816.515 126.668 811.491 125.69 807.08 123.734C802.67 121.74 799.18 118.806 796.61 114.933C794.079 111.021 792.813 106.15 792.813 100.32C792.813 95.4112 793.714 91.2884 795.517 87.9517C797.32 84.6151 799.774 81.9304 802.881 79.8977C805.987 77.8651 809.516 76.331 813.466 75.2955C817.455 74.2599 821.635 73.5312 826.007 73.1094C831.146 72.5724 835.288 72.0739 838.433 71.6136C841.578 71.1151 843.86 70.3864 845.279 69.4276C846.698 68.4687 847.408 67.0497 847.408 65.1705V64.8253C847.408 61.1818 846.257 58.3629 843.956 56.3686C841.693 54.3743 838.472 53.3771 834.291 53.3771C829.881 53.3771 826.371 54.3551 823.763 56.3111C821.156 58.2287 819.43 60.6449 818.586 63.5597L795.92 61.7188C797.07 56.3494 799.333 51.7088 802.708 47.7969C806.083 43.8466 810.436 40.8168 815.767 38.7074C821.136 36.5597 827.349 35.4858 834.406 35.4858C839.315 35.4858 844.013 36.0611 848.501 37.2116C853.026 38.3622 857.034 40.1456 860.524 42.5618C864.053 44.978 866.833 48.0845 868.866 51.8814C870.898 55.6399 871.915 60.1463 871.915 65.4006V125H848.673V112.746H847.983C846.564 115.508 844.665 117.943 842.288 120.053C839.91 122.124 837.053 123.754 833.716 124.942C830.379 126.093 826.525 126.668 822.153 126.668ZM829.171 109.755C832.776 109.755 835.96 109.045 838.721 107.626C841.482 106.169 843.649 104.213 845.222 101.759C846.794 99.304 847.58 96.5234 847.58 93.4169V84.0398C846.813 84.5384 845.759 84.9986 844.416 85.4205C843.112 85.804 841.636 86.1683 839.986 86.5135C838.337 86.8203 836.688 87.108 835.039 87.3764C833.39 87.6065 831.894 87.8175 830.552 88.0092C827.675 88.4311 825.163 89.1023 823.016 90.0227C820.868 90.9432 819.2 92.1896 818.011 93.7621C816.822 95.2962 816.227 97.2138 816.227 99.5149C816.227 102.852 817.435 105.402 819.852 107.166C822.306 108.892 825.413 109.755 829.171 109.755ZM912.075 126.668C906.438 126.668 901.413 125.69 897.003 123.734C892.592 121.74 889.102 118.806 886.533 114.933C884.001 111.021 882.736 106.15 882.736 100.32C882.736 95.4112 883.637 91.2884 885.44 87.9517C887.242 84.6151 889.697 81.9304 892.803 79.8977C895.91 77.8651 899.438 76.331 903.389 75.2955C907.377 74.2599 911.558 73.5312 915.93 73.1094C921.069 72.5724 925.211 72.0739 928.356 71.6136C931.501 71.1151 933.783 70.3864 935.202 69.4276C936.621 68.4687 937.33 67.0497 937.33 65.1705V64.8253C937.33 61.1818 936.18 58.3629 933.879 56.3686C931.616 54.3743 928.394 53.3771 924.214 53.3771C919.803 53.3771 916.294 54.3551 913.686 56.3111C911.078 58.2287 909.352 60.6449 908.509 63.5597L885.842 61.7188C886.993 56.3494 889.256 51.7088 892.631 47.7969C896.006 43.8466 900.359 40.8168 905.69 38.7074C911.059 36.5597 917.272 35.4858 924.329 35.4858C929.238 35.4858 933.936 36.0611 938.423 37.2116C942.949 38.3622 946.957 40.1456 950.447 42.5618C953.975 44.978 956.756 48.0845 958.788 51.8814C960.821 55.6399 961.837 60.1463 961.837 65.4006V125H938.596V112.746H937.906C936.487 115.508 934.588 117.943 932.21 120.053C929.832 122.124 926.975 123.754 923.639 124.942C920.302 126.093 916.448 126.668 912.075 126.668ZM919.094 109.755C922.699 109.755 925.882 109.045 928.644 107.626C931.405 106.169 933.572 104.213 935.144 101.759C936.717 99.304 937.503 96.5234 937.503 93.4169V84.0398C936.736 84.5384 935.681 84.9986 934.339 85.4205C933.035 85.804 931.558 86.1683 929.909 86.5135C928.26 86.8203 926.611 87.108 924.962 87.3764C923.313 87.6065 921.817 87.8175 920.475 88.0092C917.598 88.4311 915.086 89.1023 912.938 90.0227C910.791 90.9432 909.122 92.1896 907.933 93.7621C906.744 95.2962 906.15 97.2138 906.15 99.5149C906.15 102.852 907.358 105.402 909.774 107.166C912.229 108.892 915.335 109.755 919.094 109.755ZM1001.31 73.9148V125H976.801V36.6364H1000.16V52.2266H1001.19C1003.15 47.0874 1006.43 43.022 1011.03 40.0305C1015.63 37.0007 1021.21 35.4858 1027.77 35.4858C1033.91 35.4858 1039.26 36.8281 1043.82 39.5128C1048.39 42.1974 1051.93 46.0327 1054.46 51.0185C1057 55.9659 1058.26 61.8722 1058.26 68.7372V125H1033.75V73.1094C1033.79 67.7017 1032.41 63.483 1029.61 60.4531C1026.81 57.3849 1022.96 55.8509 1018.05 55.8509C1014.75 55.8509 1011.84 56.5604 1009.3 57.9794C1006.81 59.3984 1004.86 61.4695 1003.44 64.1925C1002.06 66.8771 1001.35 70.1179 1001.31 73.9148Z" fill="#0D0D0D" fill-opacity="0.075"/>
</svg>
